<svg width="236" height="56" viewBox="0 0 236 56" fill="none" xmlns="http://www.w3.org/2000/svg">
<g clip-path="url(#clip0_595_983)">
<path fill-rule="evenodd" clip-rule="evenodd" d="M0 43.4975H7.39121C7.45604 47.2091 9.33626 48.9021 12.4483 48.9021C15.7549 48.9021 17.311 46.9487 17.311 44.344C17.311 36.8556 0.842857 36.2696 0.842857 23.8324C0.842857 17.7766 5.12198 13.1533 12.3835 13.1533C19.7099 13.1533 24.1835 17.7115 24.2483 25.0696H16.8571C16.7923 21.7487 15.1714 20.1859 12.3835 20.1859C9.72527 20.1859 8.10439 21.6836 8.10439 24.0277C8.10439 31.1905 24.8319 31.451 24.8319 44.4091C24.8319 50.8556 20.2934 55.9347 12.3835 55.9347C4.86264 55.9347 0.0648351 51.4417 0 43.4975ZM171.619 13.9998V55.1533H164.357V34.6417H154.502V55.1533H147.305V13.9998H154.502V27.7394H164.357V13.9998H171.619ZM186.725 42.3254L176.87 13.9998H184.391L190.421 32.9487L196.256 13.9998H203.712L193.922 42.3254V55.1533H186.725V42.3254Z" fill="white"/>
<path fill-rule="evenodd" clip-rule="evenodd" d="M209.03 14H216.745L226.6 55.1535H219.144L217.782 48.5116H208.122L206.825 55.1535H199.175L209.03 14ZM216.291 41.6744L212.855 24.9395L209.483 41.6744H216.291ZM98.2263 22.2698H105.877L113.787 55.1535H106.59L102.052 33.2093L97.6428 55.1535H90.3164L98.2263 22.2698Z" fill="white"/>
<path fill-rule="evenodd" clip-rule="evenodd" d="M89.9258 13.8691H114.304V20.7063H89.9906L89.9258 13.8691Z" fill="#B72419"/>
<path d="M37.8003 14H45.4508L51.8695 40.4372H44.8673L41.6255 24.8744L38.5134 40.4372H31.4464L37.8003 14ZM54.0739 49.7488L55.3706 55.2186H47.8497L46.7475 49.7488H54.0739ZM36.6981 49.7488L35.5959 55.2186H27.9453L29.242 49.7488H36.6981Z" fill="white"/>
<path fill-rule="evenodd" clip-rule="evenodd" d="M29.3047 41.6738H54.0069V48.511H29.3047V41.6738Z" fill="#B72419"/>
<path d="M76.9579 26.5674H84.2194V14H76.9579V26.5674ZM76.9579 55.1535H84.2194V35.814H76.9579V55.1535ZM67.103 14H59.9062V26.5674H67.103V14ZM59.9062 55.1535H67.103V35.814H59.9062V55.1535Z" fill="white"/>
<path fill-rule="evenodd" clip-rule="evenodd" d="M59.9062 27.7393H84.2194V34.6416H59.9062V27.7393Z" fill="#B72419"/>
<path d="M130.059 55.9347C137.969 55.9347 142.508 50.8556 142.508 44.4091C142.508 31.451 125.78 31.1905 125.78 24.0277C125.78 21.6836 127.401 20.1859 130.059 20.1859C132.847 20.1859 134.468 21.7487 134.533 25.0696H141.924C141.859 17.7115 137.386 13.1533 130.059 13.1533C122.798 13.1533 118.454 17.7766 118.454 23.8324C118.454 36.2696 134.987 36.8556 134.987 44.344C134.987 46.9487 133.431 48.9021 130.124 48.9021C127.012 48.9021 125.067 47.2091 125.067 43.4975H117.676C117.741 51.4417 122.538 55.9347 130.059 55.9347Z" fill="white"/>
<path fill-rule="evenodd" clip-rule="evenodd" d="M117.934 1.10645H142.247V8.00877H117.934V1.10645Z" fill="#B72419"/>
<path d="M226.602 9.96241V3.77637H229.454C229.714 3.77637 229.951 3.79807 230.167 3.84148C230.384 3.84148 230.578 3.88489 230.751 3.97172C230.881 4.01513 231.01 4.10195 231.14 4.23218C231.27 4.319 231.378 4.44924 231.464 4.62288C231.594 4.75311 231.68 4.90505 231.724 5.07869C231.767 5.25234 231.788 5.42598 231.788 5.59962C231.788 5.81668 231.745 6.03373 231.659 6.25079C231.572 6.46784 231.464 6.64148 231.335 6.77172C231.162 6.94536 230.967 7.07559 230.751 7.16241C230.621 7.24923 230.513 7.29265 230.427 7.29265L230.492 7.42288C230.621 7.5097 230.751 7.61823 230.881 7.74846C230.967 7.9221 231.075 8.07404 231.205 8.20427L232.372 10.1578H231.01L230.167 8.79032C230.038 8.61668 229.93 8.46474 229.843 8.33451C229.757 8.20427 229.67 8.09575 229.584 8.00892C229.498 7.9221 229.433 7.83528 229.389 7.74846C229.346 7.70505 229.281 7.66164 229.195 7.61823C229.152 7.57482 229.109 7.55311 229.065 7.55311C229.022 7.5097 228.979 7.48799 228.936 7.48799C228.892 7.48799 228.828 7.48799 228.741 7.48799C228.698 7.48799 228.633 7.48799 228.547 7.48799H227.769V10.1578H226.602V9.96241ZM227.769 6.38102H229.325C229.498 6.38102 229.649 6.38102 229.778 6.38102C229.908 6.38102 230.016 6.35931 230.103 6.3159C230.189 6.27249 230.254 6.22908 230.297 6.18567C230.34 6.14226 230.384 6.07714 230.427 5.99032C230.47 5.94691 230.513 5.88179 230.557 5.79497C230.557 5.75156 230.557 5.68644 230.557 5.59962C230.557 5.46939 230.535 5.36086 230.492 5.27404C230.492 5.18722 230.448 5.1004 230.362 5.01358C230.276 4.92675 230.167 4.86164 230.038 4.81823C229.865 4.81823 229.692 4.81823 229.519 4.81823H227.769V6.38102Z" fill="white"/>
<path d="M226.797 9.96238V3.97168H229.455C229.974 3.97168 230.384 4.01509 230.687 4.10191C230.946 4.23214 231.162 4.42749 231.335 4.68796C231.508 4.94842 231.595 5.2523 231.595 5.59959C231.595 6.0337 231.465 6.38098 231.206 6.64145C230.903 6.94532 230.471 7.14067 229.909 7.22749C230.125 7.31432 230.276 7.42284 230.363 7.55308C230.622 7.72672 230.838 7.98718 231.011 8.33447L232.049 9.96238H231.076L230.298 8.72517C230.082 8.33447 229.887 8.0523 229.714 7.87866C229.585 7.70501 229.455 7.57478 229.325 7.48796C229.196 7.40114 229.066 7.33602 228.936 7.29261C228.85 7.29261 228.72 7.29261 228.547 7.29261H227.575V9.96238H226.797ZM227.64 6.57633H229.325C229.671 6.57633 229.952 6.55463 230.168 6.51121C230.384 6.42439 230.536 6.29416 230.622 6.12052C230.709 5.94687 230.752 5.77323 230.752 5.59959C230.752 5.29571 230.665 5.05695 230.492 4.88331C230.276 4.70966 229.952 4.62284 229.52 4.62284H227.64V6.57633Z" fill="white"/>
<path d="M228.998 -0.0654297C230.943 -0.0654297 232.694 0.715965 233.926 2.01829C235.222 3.2555 236.001 5.01364 236.001 6.96712C236.001 8.92061 235.222 10.6787 233.926 11.916C232.694 13.2183 230.943 13.9997 228.998 13.9997C227.053 13.9997 225.303 13.2183 224.071 11.916C222.774 10.6787 221.996 8.92061 221.996 6.96712C221.996 5.01364 222.774 3.2555 224.071 2.01829C225.303 0.715965 227.053 -0.0654297 228.998 -0.0654297ZM233.083 2.8648C232.046 1.82294 230.619 1.17178 228.998 1.17178C227.377 1.17178 225.951 1.82294 224.914 2.8648C223.876 3.90666 223.228 5.33922 223.228 6.96712C223.228 8.59503 223.876 10.0276 224.914 11.0694C225.951 12.1113 227.377 12.7625 228.998 12.7625C230.619 12.7625 232.046 12.1113 233.083 11.0694C234.12 10.0276 234.769 8.59503 234.769 6.96712C234.769 5.33922 234.12 3.90666 233.083 2.8648Z" fill="white"/>
</g>
<defs>
<clipPath id="clip0_595_983">
<rect width="236" height="56" fill="white"/>
</clipPath>
</defs>
</svg>
