<svg width="341" height="80" viewBox="0 0 341 80" fill="none" xmlns="http://www.w3.org/2000/svg">
<g clip-path="url(#clip0_1423_412)">
<path fill-rule="evenodd" clip-rule="evenodd" d="M189.413 69.6293C189.374 69.5503 189.315 69.491 189.236 69.4515C189.157 69.412 189.079 69.3923 189 69.3923C188.921 69.3923 188.842 69.412 188.763 69.4515C188.685 69.491 188.626 69.5503 188.586 69.6293L184.804 78.8738C184.804 78.9528 184.804 79.012 184.804 79.0515C184.804 79.1305 184.843 79.2096 184.922 79.2886C185.001 79.3676 185.099 79.4071 185.217 79.4071C185.296 79.4071 185.375 79.3873 185.454 79.3478C185.533 79.3083 185.592 79.2293 185.631 79.1108L186.636 76.5034H191.305L192.368 79.1108C192.408 79.1898 192.447 79.2688 192.487 79.3478C192.565 79.3873 192.664 79.4071 192.782 79.4071C192.9 79.4071 192.999 79.3676 193.078 79.2886C193.156 79.2096 193.196 79.1108 193.196 78.9923C193.196 78.9528 193.176 78.8935 193.137 78.8145L189.413 69.6293ZM186.99 75.6737L188.941 70.7552L190.95 75.6737H186.99ZM211.812 69.3923C211.694 69.3923 211.595 69.4318 211.516 69.5108C211.438 69.5898 211.398 69.6886 211.398 69.8071V77.8071L205.252 69.57C205.213 69.491 205.173 69.4515 205.134 69.4515C205.055 69.412 204.996 69.3923 204.956 69.3923C204.838 69.3923 204.74 69.4318 204.661 69.5108C204.582 69.5898 204.543 69.6886 204.543 69.8071V78.9923C204.543 79.1108 204.582 79.2096 204.661 79.2886C204.7 79.3676 204.779 79.4071 204.897 79.4071C205.016 79.4071 205.114 79.3676 205.193 79.2886C205.272 79.2096 205.311 79.1108 205.311 78.9923V70.9923L211.398 79.2293C211.438 79.2688 211.497 79.3083 211.576 79.3478C211.654 79.3873 211.713 79.4071 211.753 79.4071C211.871 79.4071 211.97 79.3676 212.048 79.2886C212.167 79.2096 212.226 79.091 212.226 78.933V69.8071C212.226 69.6886 212.186 69.5898 212.107 69.5108C212.029 69.4318 211.93 69.3923 211.812 69.3923ZM223.395 70.2219C223.513 70.2219 223.612 70.1824 223.691 70.1034C223.77 70.0244 223.809 69.9256 223.809 69.8071C223.809 69.6886 223.77 69.5898 223.691 69.5108C223.612 69.4318 223.513 69.3923 223.395 69.3923H218.136C218.017 69.3923 217.919 69.4318 217.84 69.5108C217.761 69.5898 217.722 69.6886 217.722 69.8071V78.933C217.722 79.0515 217.761 79.1503 217.84 79.2293C217.919 79.3478 218.017 79.4071 218.136 79.4071H223.395C223.513 79.4071 223.612 79.3676 223.691 79.2886C223.77 79.2096 223.809 79.1108 223.809 78.9923C223.809 78.8738 223.77 78.775 223.691 78.696C223.612 78.5775 223.513 78.5182 223.395 78.5182H218.608V74.6663H222.745C222.863 74.6663 222.962 74.6268 223.041 74.5478C223.12 74.4688 223.159 74.37 223.159 74.2515C223.159 74.133 223.12 74.0342 223.041 73.9552C222.962 73.8762 222.863 73.8367 222.745 73.8367H218.608V70.2219H223.395ZM240.238 69.3923C240.12 69.3923 240.022 69.412 239.943 69.4515C239.864 69.491 239.805 69.5503 239.766 69.6293L237.047 77.8071L234.683 71.8219C234.644 71.7429 234.585 71.6639 234.506 71.5849C234.427 71.5454 234.348 71.5256 234.269 71.5256C234.151 71.5256 234.053 71.5454 233.974 71.5849C233.935 71.6639 233.895 71.7429 233.856 71.8219L231.433 77.8071L228.655 69.6293C228.616 69.5503 228.576 69.491 228.537 69.4515C228.458 69.412 228.36 69.3923 228.241 69.3923C228.163 69.3923 228.064 69.412 227.946 69.4515C227.828 69.5305 227.769 69.6491 227.769 69.8071C227.769 69.8466 227.788 69.9058 227.828 69.9849L230.96 79.1108C230.999 79.1898 231.058 79.2491 231.137 79.2886C231.216 79.3676 231.275 79.4071 231.315 79.4071C231.433 79.4071 231.531 79.3873 231.61 79.3478C231.689 79.2688 231.748 79.1898 231.787 79.1108L234.21 73.0071L236.693 79.1108C236.732 79.1898 236.791 79.2688 236.87 79.3478C236.949 79.3873 237.027 79.4071 237.106 79.4071C237.185 79.4071 237.264 79.3676 237.343 79.2886C237.421 79.2491 237.481 79.1898 237.52 79.1108L240.652 69.9849C240.652 69.9058 240.652 69.8466 240.652 69.8071C240.652 69.6491 240.613 69.5305 240.534 69.4515C240.455 69.412 240.357 69.3923 240.238 69.3923ZM259.15 69.3923C259.032 69.3923 258.933 69.4318 258.855 69.5108C258.736 69.5898 258.677 69.7083 258.677 69.8663V73.8367H252.945V69.8663C252.945 69.7083 252.886 69.5898 252.767 69.5108C252.689 69.4318 252.59 69.3923 252.472 69.3923C252.354 69.3923 252.255 69.4318 252.176 69.5108C252.058 69.5898 251.999 69.7083 251.999 69.8663V78.933C251.999 79.0515 252.039 79.1503 252.117 79.2293C252.196 79.3478 252.314 79.4071 252.472 79.4071C252.59 79.4071 252.689 79.3478 252.767 79.2293C252.846 79.1503 252.905 79.0515 252.945 78.933V74.6663H258.677V78.933C258.677 79.0515 258.717 79.1503 258.795 79.2293C258.914 79.3478 259.032 79.4071 259.15 79.4071C259.268 79.4071 259.367 79.3478 259.446 79.2293C259.524 79.1503 259.564 79.0515 259.564 78.933V69.8663C259.564 69.7083 259.524 69.5898 259.446 69.5108C259.367 69.4318 259.268 69.3923 259.15 69.3923ZM272.625 70.696C272.231 70.2219 271.738 69.8663 271.147 69.6293C270.556 69.3923 269.906 69.2737 269.197 69.2737C268.527 69.2737 267.897 69.3923 267.306 69.6293C266.715 69.8663 266.203 70.2219 265.769 70.696C265.375 71.17 265.06 71.7231 264.824 72.3552C264.587 72.9478 264.469 73.6194 264.469 74.37C264.469 75.1207 264.587 75.812 264.824 76.4441C265.06 77.0762 265.375 77.6293 265.769 78.1034C266.203 78.538 266.715 78.8935 267.306 79.1701C267.897 79.4071 268.527 79.5256 269.197 79.5256C269.906 79.5256 270.556 79.4071 271.147 79.1701C271.738 78.8935 272.231 78.538 272.625 78.1034C273.058 77.6293 273.393 77.0762 273.629 76.4441C273.866 75.812 273.984 75.1207 273.984 74.37C273.984 73.6194 273.866 72.9478 273.629 72.3552C273.393 71.7231 273.058 71.17 272.625 70.696ZM272.565 76.6219C272.25 77.254 271.797 77.7478 271.206 78.1034C270.655 78.4984 269.985 78.696 269.197 78.696C268.448 78.696 267.798 78.4984 267.247 78.1034C266.656 77.7478 266.203 77.254 265.887 76.6219C265.533 75.9898 265.355 75.2392 265.355 74.37C265.355 73.5404 265.533 72.8096 265.887 72.1775C266.203 71.5058 266.656 70.9923 267.247 70.6367C267.798 70.2812 268.448 70.1034 269.197 70.1034C269.985 70.1034 270.655 70.2812 271.206 70.6367C271.797 70.9923 272.25 71.5058 272.565 72.1775C272.92 72.8096 273.097 73.5404 273.097 74.37C273.097 75.2392 272.92 75.9898 272.565 76.6219ZM286.158 78.6367C286.04 78.5577 285.942 78.4589 285.863 78.3404C285.823 78.2219 285.784 78.0441 285.745 77.8071C285.705 77.6096 285.685 77.2935 285.685 76.8589C285.646 76.3849 285.548 75.9898 285.39 75.6737C285.193 75.3182 284.937 75.0417 284.622 74.8441C284.503 74.7651 284.366 74.7058 284.208 74.6663C284.523 74.5478 284.819 74.37 285.094 74.133C285.37 73.896 285.587 73.5997 285.745 73.2441C285.863 72.8886 285.922 72.5133 285.922 72.1182C285.922 71.6046 285.804 71.1305 285.567 70.696C285.331 70.3009 284.996 69.9849 284.563 69.7478C284.129 69.5108 283.656 69.3923 283.144 69.3923H279.303C279.185 69.3923 279.086 69.4318 279.007 69.5108C278.889 69.5898 278.83 69.6886 278.83 69.8071V78.933C278.83 79.0515 278.889 79.1503 279.007 79.2293C279.086 79.3478 279.204 79.4071 279.362 79.4071C279.48 79.4071 279.579 79.3478 279.657 79.2293C279.736 79.1503 279.776 79.0515 279.776 78.933V75.1404H282.908C283.105 75.1404 283.321 75.1602 283.558 75.1997C283.755 75.2392 283.952 75.3379 284.149 75.496C284.346 75.6145 284.503 75.7923 284.622 76.0293C284.74 76.2663 284.799 76.5626 284.799 76.9182C284.799 77.4713 284.838 77.9059 284.917 78.2219C284.996 78.5379 285.114 78.775 285.272 78.933C285.39 79.091 285.528 79.2096 285.685 79.2886C285.764 79.3281 285.843 79.3478 285.922 79.3478C286.001 79.3478 286.06 79.3478 286.099 79.3478C286.178 79.3083 286.237 79.2491 286.276 79.1701C286.355 79.0515 286.375 78.9528 286.336 78.8738C286.296 78.7552 286.237 78.6762 286.158 78.6367ZM283.144 74.3108H279.776V70.2219H283.085C283.637 70.2219 284.109 70.3997 284.503 70.7552C284.858 71.1108 285.035 71.5651 285.035 72.1182C285.035 72.5528 284.957 72.9281 284.799 73.2441C284.602 73.5602 284.366 73.817 284.09 74.0145C283.814 74.212 283.499 74.3108 283.144 74.3108ZM291.714 69.3923C291.556 69.3923 291.438 69.4318 291.359 69.5108C291.28 69.5898 291.241 69.7083 291.241 69.8663V78.933C291.241 79.0515 291.28 79.1503 291.359 79.2293C291.438 79.3478 291.536 79.4071 291.654 79.4071C291.773 79.4071 291.891 79.3478 292.009 79.2293C292.088 79.1503 292.127 79.0515 292.127 78.933V69.8663C292.127 69.7083 292.088 69.5898 292.009 69.5108C291.93 69.4318 291.832 69.3923 291.714 69.3923ZM304.833 69.8071C304.833 69.6886 304.794 69.5898 304.715 69.5108C304.597 69.4318 304.479 69.3923 304.361 69.3923H297.86C297.742 69.3923 297.643 69.4318 297.564 69.5108C297.485 69.5898 297.446 69.6886 297.446 69.8071C297.446 69.9256 297.485 70.0244 297.564 70.1034C297.643 70.1824 297.742 70.2219 297.86 70.2219H303.592L297.151 78.696C297.111 78.775 297.091 78.854 297.091 78.933C297.091 79.0515 297.131 79.1503 297.21 79.2293C297.288 79.3478 297.387 79.4071 297.505 79.4071H304.361C304.439 79.4071 304.538 79.3676 304.656 79.2886C304.735 79.2096 304.774 79.1108 304.774 78.9923C304.774 78.8738 304.735 78.775 304.656 78.696C304.538 78.617 304.439 78.5775 304.361 78.5775H298.333L304.715 70.1034C304.794 70.0244 304.833 69.9256 304.833 69.8071ZM317.126 70.696C316.693 70.2219 316.18 69.8663 315.589 69.6293C315.038 69.3923 314.407 69.2737 313.698 69.2737C312.989 69.2737 312.359 69.3923 311.807 69.6293C311.216 69.8663 310.704 70.2219 310.27 70.696C309.837 71.17 309.502 71.7231 309.266 72.3552C309.029 72.9478 308.911 73.6194 308.911 74.37C308.911 75.1207 309.029 75.812 309.266 76.4441C309.502 77.0762 309.837 77.6293 310.27 78.1034C310.704 78.538 311.216 78.8935 311.807 79.1701C312.359 79.4071 312.989 79.5256 313.698 79.5256C314.407 79.5256 315.038 79.4071 315.589 79.1701C316.18 78.8935 316.693 78.538 317.126 78.1034C317.559 77.6293 317.894 77.0762 318.131 76.4441C318.367 75.812 318.485 75.1207 318.485 74.37C318.485 73.6194 318.367 72.9478 318.131 72.3552C317.894 71.7231 317.559 71.17 317.126 70.696ZM317.067 76.6219C316.752 77.254 316.299 77.7478 315.708 78.1034C315.117 78.4984 314.447 78.696 313.698 78.696C312.95 78.696 312.28 78.4984 311.689 78.1034C311.098 77.7478 310.645 77.254 310.33 76.6219C310.014 75.9898 309.857 75.2392 309.857 74.37C309.857 73.5404 310.014 72.8096 310.33 72.1775C310.645 71.5058 311.098 70.9923 311.689 70.6367C312.28 70.2812 312.95 70.1034 313.698 70.1034C314.447 70.1034 315.117 70.2812 315.708 70.6367C316.299 70.9923 316.752 71.5058 317.067 72.1775C317.382 72.8096 317.54 73.5404 317.54 74.37C317.54 75.2392 317.382 75.9898 317.067 76.6219ZM330.896 69.5108C330.817 69.4318 330.719 69.3923 330.6 69.3923C330.522 69.3923 330.443 69.4318 330.364 69.5108C330.285 69.5898 330.246 69.6886 330.246 69.8071V77.8071L324.1 69.57C324.06 69.491 324.001 69.4515 323.922 69.4515C323.844 69.412 323.784 69.3923 323.745 69.3923C323.627 69.3923 323.528 69.4318 323.45 69.5108C323.371 69.5898 323.331 69.6886 323.331 69.8071V78.9923C323.331 79.1108 323.371 79.2096 323.45 79.2886C323.528 79.3676 323.627 79.4071 323.745 79.4071C323.863 79.4071 323.962 79.3676 324.041 79.2886C324.08 79.2096 324.1 79.1108 324.1 78.9923V70.9923L330.246 79.2293C330.285 79.2688 330.325 79.3083 330.364 79.3478C330.443 79.3873 330.522 79.4071 330.6 79.4071C330.679 79.4071 330.778 79.3676 330.896 79.2886C330.975 79.2096 331.014 79.091 331.014 78.933V69.8071C331.014 69.6886 330.975 69.5898 330.896 69.5108ZM23.6414 56.1182C26.4387 53.4318 27.8374 49.7972 27.8374 45.2145V41.5404C27.8374 36.2071 25.7887 31.7034 21.6911 28.0293C20.588 27.0417 18.5983 25.7775 15.7222 24.2367C14.1068 23.3281 13.0233 22.6565 12.4717 22.2219C10.423 20.4046 9.39859 18.212 9.39859 15.6441V14.2219C9.39859 12.2466 9.81228 10.8639 10.6397 10.0738C11.3489 9.40216 12.4914 9.06635 14.0674 9.06635C15.6434 9.06635 16.7662 9.40216 17.436 10.0738C18.2634 10.7849 18.6771 12.1676 18.6771 14.2219V19.7923H27.8374V14.2219C27.8374 9.63919 26.4387 6.00463 23.6414 3.31821C21.238 1.06636 18.0467 -0.0595703 14.0674 -0.0595703C10.0487 -0.0595703 6.83765 1.06636 4.4343 3.31821C1.63695 6.00463 0.238281 9.63919 0.238281 14.2219V15.6441C0.238281 18.2515 0.77017 20.7009 1.83395 22.9923C2.89773 25.2441 4.4146 27.2589 6.38456 29.0367C7.60593 30.1034 9.51679 31.3281 12.1171 32.7108C14.0083 33.7775 15.1706 34.5083 15.604 34.9034C17.6527 36.7602 18.6771 38.9725 18.6771 41.5404V45.2145C18.6771 47.2688 18.2634 48.6515 17.436 49.3626C16.7662 50.0342 15.6434 50.37 14.0674 50.37C12.4914 50.37 11.3489 50.0342 10.6397 49.3626C9.81228 48.5725 9.39859 47.1898 9.39859 45.2145V37.6293H0.238281V45.2145C0.238281 49.7972 1.63695 53.4318 4.4343 56.1182C6.83765 58.37 10.0487 59.496 14.0674 59.496C18.0467 59.496 21.238 58.37 23.6414 56.1182Z" fill="black"/>
<path fill-rule="evenodd" clip-rule="evenodd" d="M111.581 39.7034V59.496H102.125V39.7034L90.6602 -0.0595703H100.53L106.794 19.9108L113.236 -0.0595703H123.105L111.581 39.7034ZM168.198 59.5552H139.889L155.373 9.89599H139.889V-0.0595703H168.198L152.714 49.5997H168.198V59.5552ZM194.142 9.89599V25.2441H204.662V34.6071H194.142V49.6589H209.449V59.5552H184.805V-0.000311052H209.449V9.89599H194.142ZM255.132 59.5552H249.695L235.393 29.7478V59.5552H226.055V-0.000311052H231.493L245.794 29.8071V-0.000311052H255.132V59.5552ZM281.136 59.5552H271.798V-0.000311052H281.136V59.5552Z" fill="black"/>
<path d="M325.992 49.5996C323.273 49.5996 321.027 51.7922 321.027 54.5181C321.027 57.3033 323.273 59.4959 325.992 59.4959C328.71 59.4959 330.956 57.3033 330.956 54.5181C330.956 51.7922 328.71 49.5996 325.992 49.5996Z" fill="#B72419"/>
<path fill-rule="evenodd" clip-rule="evenodd" d="M318.959 -0.0595703H309.621L297.742 59.496H307.257L314.29 19.3182L318.722 41.5997H327.351L318.959 -0.0595703ZM53.8415 51.1997L57.5647 41.7775L64.302 59.5552H74.2897L62.3517 29.6886L74.2897 -0.0595703H64.2429L53.8415 25.5997V-0.0595703H44.5039V59.5552H53.8415V51.1997Z" fill="black"/>
<path d="M333.672 -0.0595703C335.623 -0.0595703 337.336 0.7108 338.578 1.95524C339.878 3.25895 340.646 4.97747 340.646 6.87376C340.646 8.82932 339.878 10.5478 338.578 11.7923C337.336 13.096 335.623 13.8664 333.672 13.8664C331.781 13.8664 330.067 13.096 328.767 11.7923C327.526 10.5478 326.758 8.82932 326.758 6.87376C326.758 4.97747 327.526 3.25895 328.767 1.95524C330.067 0.7108 331.781 -0.0595703 333.672 -0.0595703ZM338.046 2.54784C336.923 1.42191 335.386 0.7108 333.672 0.7108C332.018 0.7108 330.422 1.42191 329.358 2.54784C328.235 3.6145 327.526 5.2145 327.526 6.87376C327.526 8.59228 328.235 10.133 329.358 11.2589C330.422 12.3849 332.018 13.096 333.672 13.096C335.386 13.096 336.923 12.3849 338.046 11.2589C339.169 10.133 339.878 8.59228 339.878 6.87376C339.878 5.2145 339.169 3.6145 338.046 2.54784Z" fill="black"/>
<path d="M329.121 5.74822V5.03711H332.549V5.74822H331.308V9.30378H330.421V5.74822H329.121ZM333.14 9.30378V5.03711H334.499L335.149 6.99267C335.189 7.07168 335.228 7.1902 335.267 7.34822C335.307 7.46674 335.346 7.62476 335.386 7.82229C335.425 7.98032 335.464 8.13834 335.504 8.29637C335.543 8.13834 335.583 7.98032 335.622 7.82229C335.661 7.62476 335.681 7.46674 335.681 7.34822C335.72 7.1902 335.76 7.07168 335.799 6.99267L336.449 5.03711H337.809V9.30378H336.922V7.28896C336.922 7.17044 336.922 7.03217 336.922 6.87415C336.962 6.71612 336.981 6.53834 336.981 6.34081C336.981 6.14328 336.981 5.9655 336.981 5.80748C336.942 5.9655 336.883 6.14328 336.804 6.34081C336.765 6.53834 336.725 6.71612 336.686 6.87415C336.646 7.03217 336.607 7.17044 336.568 7.28896L335.858 9.30378H335.149L334.381 7.28896C334.381 7.17044 334.341 7.03217 334.263 6.87415C334.223 6.71612 334.184 6.5581 334.144 6.40007C334.105 6.20254 334.046 6.00501 333.967 5.80748C333.967 5.9655 333.987 6.14328 334.026 6.34081C334.026 6.53834 334.026 6.71612 334.026 6.87415C334.026 7.03217 334.026 7.17044 334.026 7.28896V9.30378H333.14Z" fill="black"/>
</g>
<defs>
<clipPath id="clip0_1423_412">
<rect width="341" height="80" fill="white"/>
</clipPath>
</defs>
</svg>