<svg width="325" height="76" viewBox="0 0 325 76" fill="none" xmlns="http://www.w3.org/2000/svg">
<g clip-path="url(#clip0_1326_1759)">
<path fill-rule="evenodd" clip-rule="evenodd" d="M180.022 66.1478C179.984 66.0727 179.928 66.0164 179.853 65.9789C179.778 65.9414 179.703 65.9226 179.629 65.9226C179.554 65.9226 179.479 65.9414 179.404 65.9789C179.329 66.0164 179.273 66.0727 179.235 66.1478L175.641 74.93C175.641 75.0051 175.641 75.0614 175.641 75.0989C175.641 75.174 175.678 75.249 175.753 75.3241C175.828 75.3991 175.921 75.4367 176.034 75.4367C176.109 75.4367 176.184 75.4179 176.258 75.3804C176.333 75.3428 176.39 75.2678 176.427 75.1552L177.382 72.6782H181.819L182.83 75.1552C182.868 75.2303 182.905 75.3053 182.943 75.3804C183.017 75.4179 183.111 75.4367 183.223 75.4367C183.336 75.4367 183.429 75.3991 183.504 75.3241C183.579 75.249 183.617 75.1552 183.617 75.0426C183.617 75.0051 183.598 74.9488 183.56 74.8737L180.022 66.1478ZM177.719 71.89L179.572 67.2174L181.482 71.89H177.719ZM201.31 65.9226C201.197 65.9226 201.104 65.9601 201.029 66.0352C200.954 66.1103 200.916 66.2041 200.916 66.3167V73.9167L195.075 66.0915C195.037 66.0164 195 65.9789 194.963 65.9789C194.888 65.9414 194.832 65.9226 194.794 65.9226C194.682 65.9226 194.588 65.9601 194.513 66.0352C194.438 66.1103 194.401 66.2041 194.401 66.3167V75.0426C194.401 75.1552 194.438 75.249 194.513 75.3241C194.551 75.3991 194.626 75.4367 194.738 75.4367C194.85 75.4367 194.944 75.3991 195.019 75.3241C195.094 75.249 195.131 75.1552 195.131 75.0426V67.4426L200.916 75.2678C200.954 75.3053 201.01 75.3428 201.085 75.3804C201.16 75.4179 201.216 75.4367 201.253 75.4367C201.366 75.4367 201.459 75.3991 201.534 75.3241C201.647 75.249 201.703 75.1364 201.703 74.9863V66.3167C201.703 66.2041 201.665 66.1103 201.59 66.0352C201.516 65.9601 201.422 65.9226 201.31 65.9226ZM212.319 66.7108C212.431 66.7108 212.525 66.6732 212.599 66.5982C212.674 66.5231 212.712 66.4293 212.712 66.3167C212.712 66.2041 212.674 66.1103 212.599 66.0352C212.525 65.9601 212.431 65.9226 212.319 65.9226H207.32C207.207 65.9226 207.114 65.9601 207.039 66.0352C206.964 66.1103 206.926 66.2041 206.926 66.3167V74.9863C206.926 75.0989 206.964 75.1927 207.039 75.2678C207.114 75.3804 207.207 75.4367 207.32 75.4367H212.319C212.431 75.4367 212.525 75.3991 212.599 75.3241C212.674 75.249 212.712 75.1552 212.712 75.0426C212.712 74.93 212.674 74.8362 212.599 74.7611C212.525 74.6485 212.431 74.5922 212.319 74.5922H207.769V70.933H211.701C211.813 70.933 211.907 70.8954 211.982 70.8204C212.057 70.7453 212.094 70.6515 212.094 70.5389C212.094 70.4263 212.057 70.3325 211.982 70.2574C211.907 70.1824 211.813 70.1448 211.701 70.1448H207.769V66.7108H212.319ZM228.327 65.9226C228.214 65.9226 228.121 65.9414 228.046 65.9789C227.971 66.0164 227.915 66.0727 227.877 66.1478L225.294 73.9167L223.047 68.2307C223.009 68.1557 222.953 68.0806 222.878 68.0056C222.803 67.968 222.729 67.9493 222.654 67.9493C222.541 67.9493 222.448 67.968 222.373 68.0056C222.335 68.0806 222.298 68.1557 222.26 68.2307L219.958 73.9167L217.318 66.1478C217.28 66.0727 217.243 66.0164 217.205 65.9789C217.13 65.9414 217.037 65.9226 216.924 65.9226C216.85 65.9226 216.756 65.9414 216.644 65.9789C216.531 66.054 216.475 66.1666 216.475 66.3167C216.475 66.3542 216.494 66.4105 216.531 66.4856L219.508 75.1552C219.546 75.2303 219.602 75.2866 219.677 75.3241C219.752 75.3991 219.808 75.4367 219.845 75.4367C219.958 75.4367 220.051 75.4179 220.126 75.3804C220.201 75.3053 220.257 75.2303 220.295 75.1552L222.597 69.3567L224.957 75.1552C224.994 75.2303 225.05 75.3053 225.125 75.3804C225.2 75.4179 225.275 75.4367 225.35 75.4367C225.425 75.4367 225.499 75.3991 225.574 75.3241C225.649 75.2866 225.705 75.2303 225.743 75.1552L228.72 66.4856C228.72 66.4105 228.72 66.3542 228.72 66.3167C228.72 66.1666 228.682 66.054 228.607 65.9789C228.533 65.9414 228.439 65.9226 228.327 65.9226ZM246.301 65.9226C246.188 65.9226 246.095 65.9601 246.02 66.0352C245.907 66.1103 245.851 66.2228 245.851 66.373V70.1448H240.403V66.373C240.403 66.2228 240.347 66.1103 240.234 66.0352C240.159 65.9601 240.066 65.9226 239.954 65.9226C239.841 65.9226 239.748 65.9601 239.673 66.0352C239.56 66.1103 239.504 66.2228 239.504 66.373V74.9863C239.504 75.0989 239.542 75.1927 239.616 75.2678C239.691 75.3804 239.804 75.4367 239.954 75.4367C240.066 75.4367 240.159 75.3804 240.234 75.2678C240.309 75.1927 240.365 75.0989 240.403 74.9863V70.933H245.851V74.9863C245.851 75.0989 245.889 75.1927 245.964 75.2678C246.076 75.3804 246.188 75.4367 246.301 75.4367C246.413 75.4367 246.506 75.3804 246.581 75.2678C246.656 75.1927 246.694 75.0989 246.694 74.9863V66.373C246.694 66.2228 246.656 66.1103 246.581 66.0352C246.506 65.9601 246.413 65.9226 246.301 65.9226ZM259.107 67.1611C258.732 66.7108 258.264 66.373 257.703 66.1478C257.141 65.9226 256.523 65.81 255.849 65.81C255.213 65.81 254.613 65.9226 254.052 66.1478C253.49 66.373 253.003 66.7108 252.591 67.1611C252.217 67.6115 251.917 68.1369 251.693 68.7374C251.468 69.3004 251.356 69.9384 251.356 70.6515C251.356 71.3646 251.468 72.0214 251.693 72.6219C251.917 73.2224 252.217 73.7478 252.591 74.1982C253.003 74.611 253.49 74.9488 254.052 75.2115C254.613 75.4367 255.213 75.5493 255.849 75.5493C256.523 75.5493 257.141 75.4367 257.703 75.2115C258.264 74.9488 258.732 74.611 259.107 74.1982C259.519 73.7478 259.837 73.2224 260.062 72.6219C260.286 72.0214 260.399 71.3646 260.399 70.6515C260.399 69.9384 260.286 69.3004 260.062 68.7374C259.837 68.1369 259.519 67.6115 259.107 67.1611ZM259.051 72.7908C258.751 73.3912 258.321 73.8604 257.759 74.1982C257.235 74.5735 256.598 74.7611 255.849 74.7611C255.138 74.7611 254.52 74.5735 253.996 74.1982C253.434 73.8604 253.003 73.3912 252.704 72.7908C252.367 72.1903 252.198 71.4772 252.198 70.6515C252.198 69.8633 252.367 69.169 252.704 68.5685C253.003 67.9305 253.434 67.4426 253.996 67.1048C254.52 66.767 255.138 66.5982 255.849 66.5982C256.598 66.5982 257.235 66.767 257.759 67.1048C258.321 67.4426 258.751 67.9305 259.051 68.5685C259.388 69.169 259.556 69.8633 259.556 70.6515C259.556 71.4772 259.388 72.1903 259.051 72.7908ZM271.97 74.7048C271.857 74.6298 271.764 74.5359 271.689 74.4233C271.651 74.3108 271.614 74.1419 271.576 73.9167C271.539 73.729 271.52 73.4288 271.52 73.0159C271.483 72.5656 271.389 72.1903 271.239 71.89C271.052 71.5522 270.809 71.2895 270.509 71.1019C270.397 71.0268 270.266 70.9705 270.116 70.933C270.416 70.8204 270.696 70.6515 270.958 70.4263C271.221 70.2011 271.427 69.9196 271.576 69.5819C271.689 69.2441 271.745 68.8875 271.745 68.5122C271.745 68.0243 271.633 67.574 271.408 67.1611C271.183 66.7858 270.865 66.4856 270.453 66.2604C270.041 66.0352 269.592 65.9226 269.105 65.9226H265.454C265.342 65.9226 265.248 65.9601 265.173 66.0352C265.061 66.1103 265.005 66.2041 265.005 66.3167V74.9863C265.005 75.0989 265.061 75.1927 265.173 75.2678C265.248 75.3804 265.36 75.4367 265.51 75.4367C265.622 75.4367 265.716 75.3804 265.791 75.2678C265.866 75.1927 265.903 75.0989 265.903 74.9863V71.3833H268.88C269.067 71.3833 269.273 71.4021 269.498 71.4396C269.685 71.4772 269.873 71.571 270.06 71.7211C270.247 71.8337 270.397 72.0026 270.509 72.2278C270.621 72.453 270.678 72.7345 270.678 73.0722C270.678 73.5977 270.715 74.0105 270.79 74.3108C270.865 74.611 270.977 74.8362 271.127 74.9863C271.239 75.1364 271.37 75.249 271.52 75.3241C271.595 75.3616 271.67 75.3804 271.745 75.3804C271.82 75.3804 271.876 75.3804 271.913 75.3804C271.988 75.3428 272.044 75.2866 272.082 75.2115C272.157 75.0989 272.175 75.0051 272.138 74.93C272.101 74.8174 272.044 74.7424 271.97 74.7048ZM269.105 70.5952H265.903V66.7108H269.049C269.573 66.7108 270.022 66.8796 270.397 67.2174C270.734 67.5552 270.902 67.9868 270.902 68.5122C270.902 68.9251 270.827 69.2816 270.678 69.5819C270.49 69.8821 270.266 70.1261 270.004 70.3137C269.742 70.5014 269.442 70.5952 269.105 70.5952ZM277.249 65.9226C277.1 65.9226 276.987 65.9601 276.912 66.0352C276.837 66.1103 276.8 66.2228 276.8 66.373V74.9863C276.8 75.0989 276.837 75.1927 276.912 75.2678C276.987 75.3804 277.081 75.4367 277.193 75.4367C277.306 75.4367 277.418 75.3804 277.53 75.2678C277.605 75.1927 277.643 75.0989 277.643 74.9863V66.373C277.643 66.2228 277.605 66.1103 277.53 66.0352C277.455 65.9601 277.362 65.9226 277.249 65.9226ZM289.719 66.3167C289.719 66.2041 289.681 66.1103 289.606 66.0352C289.494 65.9601 289.382 65.9226 289.269 65.9226H283.091C282.979 65.9226 282.885 65.9601 282.81 66.0352C282.735 66.1103 282.698 66.2041 282.698 66.3167C282.698 66.4293 282.735 66.5231 282.81 66.5982C282.885 66.6732 282.979 66.7108 283.091 66.7108H288.539L282.417 74.7611C282.379 74.8362 282.361 74.9112 282.361 74.9863C282.361 75.0989 282.398 75.1927 282.473 75.2678C282.548 75.3804 282.642 75.4367 282.754 75.4367H289.269C289.344 75.4367 289.438 75.3991 289.55 75.3241C289.625 75.249 289.663 75.1552 289.663 75.0426C289.663 74.93 289.625 74.8362 289.55 74.7611C289.438 74.6861 289.344 74.6485 289.269 74.6485H283.54L289.606 66.5982C289.681 66.5231 289.719 66.4293 289.719 66.3167ZM301.402 67.1611C300.99 66.7108 300.503 66.373 299.941 66.1478C299.417 65.9226 298.818 65.81 298.144 65.81C297.47 65.81 296.871 65.9226 296.347 66.1478C295.785 66.373 295.298 66.7108 294.886 67.1611C294.474 67.6115 294.156 68.1369 293.931 68.7374C293.707 69.3004 293.594 69.9384 293.594 70.6515C293.594 71.3646 293.707 72.0214 293.931 72.6219C294.156 73.2224 294.474 73.7478 294.886 74.1982C295.298 74.611 295.785 74.9488 296.347 75.2115C296.871 75.4367 297.47 75.5493 298.144 75.5493C298.818 75.5493 299.417 75.4367 299.941 75.2115C300.503 74.9488 300.99 74.611 301.402 74.1982C301.814 73.7478 302.132 73.2224 302.357 72.6219C302.581 72.0214 302.694 71.3646 302.694 70.6515C302.694 69.9384 302.581 69.3004 302.357 68.7374C302.132 68.1369 301.814 67.6115 301.402 67.1611ZM301.346 72.7908C301.046 73.3912 300.615 73.8604 300.054 74.1982C299.492 74.5735 298.855 74.7611 298.144 74.7611C297.433 74.7611 296.796 74.5735 296.234 74.1982C295.673 73.8604 295.242 73.3912 294.942 72.7908C294.643 72.1903 294.493 71.4772 294.493 70.6515C294.493 69.8633 294.643 69.169 294.942 68.5685C295.242 67.9305 295.673 67.4426 296.234 67.1048C296.796 66.767 297.433 66.5982 298.144 66.5982C298.855 66.5982 299.492 66.767 300.054 67.1048C300.615 67.4426 301.046 67.9305 301.346 68.5685C301.645 69.169 301.795 69.8633 301.795 70.6515C301.795 71.4772 301.645 72.1903 301.346 72.7908ZM314.489 66.0352C314.414 65.9601 314.321 65.9226 314.208 65.9226C314.133 65.9226 314.058 65.9601 313.984 66.0352C313.909 66.1103 313.871 66.2041 313.871 66.3167V73.9167L308.03 66.0915C307.992 66.0164 307.936 65.9789 307.861 65.9789C307.786 65.9414 307.73 65.9226 307.693 65.9226C307.58 65.9226 307.487 65.9601 307.412 66.0352C307.337 66.1103 307.299 66.2041 307.299 66.3167V75.0426C307.299 75.1552 307.337 75.249 307.412 75.3241C307.487 75.3991 307.58 75.4367 307.693 75.4367C307.805 75.4367 307.899 75.3991 307.973 75.3241C308.011 75.249 308.03 75.1552 308.03 75.0426V67.4426L313.871 75.2678C313.909 75.3053 313.946 75.3428 313.984 75.3804C314.058 75.4179 314.133 75.4367 314.208 75.4367C314.283 75.4367 314.377 75.3991 314.489 75.3241C314.564 75.249 314.601 75.1364 314.601 74.9863V66.3167C314.601 66.2041 314.564 66.1103 314.489 66.0352ZM22.4693 53.3122C25.1279 50.7601 26.4572 47.3073 26.4572 42.9537V39.4633C26.4572 34.3967 24.5101 30.1182 20.6157 26.6278C19.5672 25.6895 17.6762 24.4885 14.9427 23.0248C13.4074 22.1616 12.3777 21.5236 11.8534 21.1108C9.90626 19.3843 8.93267 17.3014 8.93267 14.8619V13.5108C8.93267 11.6342 9.32585 10.3206 10.1122 9.57002C10.7862 8.932 11.8722 8.61299 13.37 8.61299C14.8678 8.61299 15.935 8.932 16.5716 9.57002C17.3579 10.2456 17.7511 11.5592 17.7511 13.5108V18.8026H26.4572V13.5108C26.4572 9.15718 25.1279 5.70435 22.4693 3.15225C20.1851 1.01299 17.152 -0.0566406 13.37 -0.0566406C9.55052 -0.0566406 6.49871 1.01299 4.21452 3.15225C1.55588 5.70435 0.226562 9.15718 0.226562 13.5108V14.8619C0.226562 17.3389 0.732078 19.6658 1.74311 21.8426C2.75414 23.9819 4.1958 25.8959 6.06808 27.5848C7.2289 28.5982 9.04501 29.7616 11.5164 31.0752C13.3138 32.0885 14.4185 32.7829 14.8304 33.1582C16.7775 34.9221 17.7511 37.0238 17.7511 39.4633V42.9537C17.7511 44.9053 17.3579 46.2189 16.5716 46.8945C15.935 47.5325 14.8678 47.8515 13.37 47.8515C11.8722 47.8515 10.7862 47.5325 10.1122 46.8945C9.32585 46.1438 8.93267 44.8303 8.93267 42.9537V35.7478H0.226562V42.9537C0.226562 47.3073 1.55588 50.7601 4.21452 53.3122C6.49871 55.4515 9.55052 56.5211 13.37 56.5211C17.152 56.5211 20.1851 55.4515 22.4693 53.3122Z" fill="white"/>
<path fill-rule="evenodd" clip-rule="evenodd" d="M106.05 37.7182V56.5211H97.0627V37.7182L86.166 -0.0566406H95.5462L101.5 18.9152L107.622 -0.0566406H117.002L106.05 37.7182ZM159.859 56.5774H132.954L147.67 9.40114H132.954V-0.0566406H159.859L145.143 47.1197H159.859V56.5774ZM184.517 9.40114V23.9819H194.515V32.8767H184.517V47.176H199.065V56.5774H175.642V-0.000344323H199.065V9.40114H184.517ZM242.483 56.5774H237.315L223.723 28.2604V56.5774H214.848V-0.000344323H220.015L233.608 28.3167V-0.000344323H242.483V56.5774ZM267.197 56.5774H258.322V-0.000344323H267.197V56.5774Z" fill="white"/>
<path d="M309.828 47.1191C307.244 47.1191 305.109 49.2021 305.109 51.7917C305.109 54.4377 307.244 56.5206 309.828 56.5206C312.411 56.5206 314.546 54.4377 314.546 51.7917C314.546 49.2021 312.411 47.1191 309.828 47.1191Z" fill="#B72419"/>
<path fill-rule="evenodd" clip-rule="evenodd" d="M303.143 -0.0566406H294.269L282.979 56.5211H292.022L298.706 18.3522L302.918 39.5197H311.119L303.143 -0.0566406ZM51.1715 48.6397L54.7101 39.6885L61.1133 56.5774H70.6058L59.2597 28.2041L70.6058 -0.0566406H61.0571L51.1715 24.3197V-0.0566406H42.2969V56.5774H51.1715V48.6397Z" fill="white"/>
<path d="M317.128 -0.0566406C318.982 -0.0566406 320.611 0.675211 321.79 1.85743C323.026 3.09595 323.756 4.72855 323.756 6.53003C323.756 8.3878 323.026 10.0204 321.79 11.2026C320.611 12.4411 318.982 13.173 317.128 13.173C315.331 13.173 313.702 12.4411 312.466 11.2026C311.287 10.0204 310.557 8.3878 310.557 6.53003C310.557 4.72855 311.287 3.09595 312.466 1.85743C313.702 0.675211 315.331 -0.0566406 317.128 -0.0566406ZM321.285 2.4204C320.218 1.35077 318.757 0.675211 317.128 0.675211C315.556 0.675211 314.039 1.35077 313.028 2.4204C311.961 3.43373 311.287 4.95373 311.287 6.53003C311.287 8.16262 311.961 9.62632 313.028 10.696C314.039 11.7656 315.556 12.4411 317.128 12.4411C318.757 12.4411 320.218 11.7656 321.285 10.696C322.352 9.62632 323.026 8.16262 323.026 6.53003C323.026 4.95373 322.352 3.43373 321.285 2.4204Z" fill="white"/>
<path d="M312.803 5.46071V4.78516H316.06V5.46071H314.881V8.83849H314.038V5.46071H312.803ZM316.622 8.83849V4.78516H317.914L318.532 6.64293C318.569 6.718 318.607 6.83059 318.644 6.98071C318.682 7.0933 318.719 7.24343 318.757 7.43108C318.794 7.58121 318.831 7.73133 318.869 7.88145C318.906 7.73133 318.944 7.58121 318.981 7.43108C319.019 7.24343 319.037 7.0933 319.037 6.98071C319.075 6.83059 319.112 6.718 319.15 6.64293L319.768 4.78516H321.059V8.83849H320.217V6.92442C320.217 6.81182 320.217 6.68046 320.217 6.53034C320.254 6.38022 320.273 6.21133 320.273 6.02367C320.273 5.83602 320.273 5.66713 320.273 5.51701C320.236 5.66713 320.18 5.83602 320.105 6.02367C320.067 6.21133 320.03 6.38022 319.992 6.53034C319.955 6.68046 319.917 6.81182 319.88 6.92442L319.206 8.83849H318.532L317.802 6.92442C317.802 6.81182 317.764 6.68046 317.689 6.53034C317.652 6.38022 317.614 6.23009 317.577 6.07997C317.54 5.89232 317.483 5.70466 317.409 5.51701C317.409 5.66713 317.427 5.83602 317.465 6.02367C317.465 6.21133 317.465 6.38022 317.465 6.53034C317.465 6.68046 317.465 6.81182 317.465 6.92442V8.83849H316.622Z" fill="white"/>
</g>
<defs>
<clipPath id="clip0_1326_1759">
<rect width="324.092" height="76" fill="white"/>
</clipPath>
</defs>
</svg>