<svg width="21" height="20" viewBox="0 0 21 20" fill="none" xmlns="http://www.w3.org/2000/svg">
<path fill-rule="evenodd" clip-rule="evenodd" d="M1.74888 9.99921C1.74888 9.83345 1.81473 9.67448 1.93194 9.55727C2.04915 9.44006 2.20812 9.37421 2.37388 9.37421H17.1151L13.1814 5.44171C13.064 5.32435 12.9981 5.16518 12.9981 4.99921C12.9981 4.83324 13.064 4.67407 13.1814 4.55671C13.2987 4.43935 13.4579 4.37342 13.6239 4.37342C13.7899 4.37342 13.949 4.43935 14.0664 4.55671L19.0664 9.55671C19.1246 9.61477 19.1708 9.68374 19.2023 9.75967C19.2338 9.8356 19.25 9.917 19.25 9.99921C19.25 10.0814 19.2338 10.1628 19.2023 10.2388C19.1708 10.3147 19.1246 10.3837 19.0664 10.4417L14.0664 15.4417C14.0083 15.4998 13.9393 15.5459 13.8634 15.5774C13.7874 15.6088 13.7061 15.625 13.6239 15.625C13.4579 15.625 13.2987 15.5591 13.1814 15.4417C13.064 15.3244 12.9981 15.1652 12.9981 14.9992C12.9981 14.8332 13.064 14.6741 13.1814 14.5567L17.1151 10.6242H2.37388C2.20812 10.6242 2.04915 10.5584 1.93194 10.4412C1.81473 10.3239 1.74888 10.165 1.74888 9.99921Z" fill="white"/>
</svg>
