<svg width="20" height="20" viewBox="0 0 20 20" fill="none" xmlns="http://www.w3.org/2000/svg">
<path fill-rule="evenodd" clip-rule="evenodd" d="M1.24888 9.99921C1.24888 9.83345 1.31473 9.67448 1.43194 9.55727C1.54915 9.44006 1.70812 9.37421 1.87388 9.37421H16.6151L12.6814 5.44171C12.564 5.32435 12.4981 5.16518 12.4981 4.99921C12.4981 4.83324 12.564 4.67407 12.6814 4.55671C12.7987 4.43935 12.9579 4.37342 13.1239 4.37342C13.2899 4.37342 13.449 4.43935 13.5664 4.55671L18.5664 9.55671C18.6246 9.61477 18.6708 9.68374 18.7023 9.75967C18.7338 9.8356 18.75 9.917 18.75 9.99921C18.75 10.0814 18.7338 10.1628 18.7023 10.2388C18.6708 10.3147 18.6246 10.3837 18.5664 10.4417L13.5664 15.4417C13.5083 15.4998 13.4393 15.5459 13.3634 15.5774C13.2874 15.6088 13.2061 15.625 13.1239 15.625C12.9579 15.625 12.7987 15.5591 12.6814 15.4417C12.564 15.3244 12.4981 15.1652 12.4981 14.9992C12.4981 14.8332 12.564 14.6741 12.6814 14.5567L16.6151 10.6242H1.87388C1.70812 10.6242 1.54915 10.5584 1.43194 10.4412C1.31473 10.3239 1.24888 10.165 1.24888 9.99921Z" fill="black"/>
</svg>
