<svg width="32" height="33" viewBox="0 0 32 33" fill="none" xmlns="http://www.w3.org/2000/svg">
<path fill-rule="evenodd" clip-rule="evenodd" d="M9.33366 7.16699H14.667C17.1811 7.16699 18.4382 7.16699 19.2193 7.94805C20.0003 8.72909 20.0003 9.98617 20.0003 12.5003V28.8337H22.0003H28.0003H29.3337C29.8859 28.8337 30.3337 29.2814 30.3337 29.8337C30.3337 30.3859 29.8859 30.8337 29.3337 30.8337H2.66699C2.11471 30.8337 1.66699 30.3859 1.66699 29.8337C1.66699 29.2814 2.11471 28.8337 2.66699 28.8337H4.00033V12.5003C4.00033 9.98617 4.00033 8.72909 4.78138 7.94805C5.56242 7.16699 6.8195 7.16699 9.33366 7.16699ZM7.00033 11.167C7.00033 10.6147 7.44805 10.167 8.00033 10.167H16.0003C16.5526 10.167 17.0003 10.6147 17.0003 11.167C17.0003 11.7193 16.5526 12.167 16.0003 12.167H8.00033C7.44805 12.167 7.00033 11.7193 7.00033 11.167ZM7.00033 15.167C7.00033 14.6147 7.44805 14.167 8.00033 14.167H16.0003C16.5526 14.167 17.0003 14.6147 17.0003 15.167C17.0003 15.7193 16.5526 16.167 16.0003 16.167H8.00033C7.44805 16.167 7.00033 15.7193 7.00033 15.167ZM7.00033 19.167C7.00033 18.6147 7.44805 18.167 8.00033 18.167H16.0003C16.5526 18.167 17.0003 18.6147 17.0003 19.167C17.0003 19.7193 16.5526 20.167 16.0003 20.167H8.00033C7.44805 20.167 7.00033 19.7193 7.00033 19.167ZM12.0003 24.8337C12.5526 24.8337 13.0003 25.2814 13.0003 25.8337V28.8337H11.0003V25.8337C11.0003 25.2814 11.448 24.8337 12.0003 24.8337Z" fill="black"/>
<path opacity="0.5" d="M20.0003 3.16699H22.667C25.1811 3.16699 26.4382 3.16699 27.2192 3.94805C28.0003 4.72909 28.0003 5.98617 28.0003 8.50033V28.8337H20.0003V12.5003C20.0003 9.98617 20.0003 8.72909 19.2192 7.94805C18.4558 7.18458 17.2375 7.16739 14.835 7.16701V5.16698C14.9474 4.65066 15.135 4.26111 15.448 3.94805C16.229 3.16699 17.4862 3.16699 20.0003 3.16699Z" fill="black"/>
</svg>
