<svg width="24" height="24" viewBox="0 0 24 24" fill="none" xmlns="http://www.w3.org/2000/svg">
<path d="M5.62402 3.95312C6.26406 3.27929 7.36893 3.35552 7.96484 4.19824L9.22559 5.98145C9.71251 6.67011 9.64779 7.59852 9.11523 8.15918L8.82812 8.46094L9.19043 8.80469C8.82823 8.46066 8.82761 8.46142 8.82715 8.46191L8.82422 8.46484C8.82287 8.46629 8.82178 8.46811 8.82031 8.46973C8.81735 8.47299 8.81399 8.47651 8.81055 8.48047C8.80366 8.48839 8.79563 8.49802 8.78711 8.50879C8.77011 8.53029 8.74978 8.5576 8.72852 8.59082C8.68574 8.65772 8.63788 8.74848 8.59668 8.86426C8.51315 9.09905 8.46369 9.42113 8.52441 9.83594C8.64446 10.6553 9.18955 11.8099 10.7002 13.4004C12.2079 14.9878 13.312 15.5725 14.1104 15.7021C14.5167 15.768 14.8353 15.7139 15.0684 15.6221C15.1829 15.5769 15.2727 15.5238 15.3379 15.4775C15.3703 15.4545 15.3972 15.4332 15.418 15.415C15.4281 15.4061 15.4369 15.3978 15.4443 15.3906L15.459 15.376L15.4609 15.373L15.4619 15.3721C15.4588 15.3683 15.4253 15.3357 15.1006 15.0273L15.4629 15.3711L15.9189 14.8916C16.3858 14.4004 17.1134 14.2943 17.7236 14.6455L19.6338 15.7451C20.59 16.2955 20.7875 17.6475 20.0596 18.4141L18.6387 19.9092C18.3323 20.2318 17.9879 20.4302 17.627 20.4658C16.1269 20.6138 12.3025 20.4734 8.17773 16.1309C4.25908 12.0052 3.5861 8.50597 3.50195 6.93945C3.47592 6.45442 3.68922 5.99024 4.05469 5.60547L5.62402 3.95312Z" stroke="#3A4C52"/>
</svg>
