<svg width="32" height="33" viewBox="0 0 32 33" fill="none" xmlns="http://www.w3.org/2000/svg">
<path opacity="0.5" d="M26.289 27.6495C28.191 26.6125 29.3337 25.2827 29.3337 23.833C29.3337 22.2963 28.0499 20.8945 25.9386 19.833C23.4971 18.6055 19.9493 17.833 16.0003 17.833C12.0514 17.833 8.5035 18.6055 6.06207 19.833C3.95079 20.8945 2.66699 22.2963 2.66699 23.833C2.66699 25.3697 3.95079 26.7715 6.06207 27.833C8.5035 29.0605 12.0514 29.833 16.0003 29.833C20.1425 29.833 23.8434 28.983 26.289 27.6495Z" fill="black"/>
<path fill-rule="evenodd" clip-rule="evenodd" d="M6.66699 11.8532C6.66699 7.05593 10.8457 3.16699 16.0003 3.16699C21.155 3.16699 25.3337 7.05593 25.3337 11.8532C25.3337 16.6129 22.3547 22.1669 17.7071 24.1531C16.6237 24.6161 15.377 24.6161 14.2935 24.1531C9.64587 22.1669 6.66699 16.6129 6.66699 11.8532ZM16.0003 15.167C17.4731 15.167 18.667 13.9731 18.667 12.5003C18.667 11.0276 17.4731 9.83366 16.0003 9.83366C14.5275 9.83366 13.3337 11.0276 13.3337 12.5003C13.3337 13.9731 14.5275 15.167 16.0003 15.167Z" fill="black"/>
</svg>
