<svg width="32" height="33" viewBox="0 0 32 33" fill="none" xmlns="http://www.w3.org/2000/svg">
<path opacity="0.5" d="M8.00033 3.16699H11.0003H13.0003H15.0003H17.0003H19.0003H21.0003H23.0003L25.0003 3.1671C26.6531 3.16867 27.5171 3.19449 28.1485 3.61641C28.4397 3.81097 28.6897 4.06097 28.8842 4.35214C29.3337 5.02474 29.3337 5.96105 29.3337 7.83366C29.3337 9.70627 29.3337 10.6426 28.8842 11.3152C28.6897 11.6064 28.4397 11.8564 28.1485 12.0509C27.4759 12.5003 26.5397 12.5003 24.667 12.5003H14.667C13.4099 12.5003 12.7814 12.5003 12.3908 12.8908C12.0003 13.2814 12.0003 13.9099 12.0003 15.167V25.167C12.0003 27.0397 12.0003 27.9759 11.5509 28.6485C11.3564 28.9397 11.1064 29.1897 10.8152 29.3842C10.1426 29.8337 9.20627 29.8337 7.33366 29.8337C5.46105 29.8337 4.52474 29.8337 3.85214 29.3842C3.56097 29.1897 3.31097 28.9397 3.11641 28.6485C2.69449 28.0171 2.66867 27.1531 2.6671 25.5003L2.66699 23.5003V21.5003V19.5003V17.5003V15.5003V13.5003V11.5003V8.50033C2.66699 5.98617 2.66699 4.72909 3.44805 3.94805C4.22909 3.16699 5.48617 3.16699 8.00033 3.16699Z" fill="black"/>
<path d="M5.33366 23.5H2.66699L2.6671 25.5H5.33366C5.88594 25.5 6.33366 25.0523 6.33366 24.5C6.33366 23.9477 5.88594 23.5 5.33366 23.5Z" fill="black"/>
<path d="M6.66699 19.5H2.66699V21.5H6.66699C7.21927 21.5 7.66699 21.0523 7.66699 20.5C7.66699 19.9477 7.21927 19.5 6.66699 19.5Z" fill="black"/>
<path d="M5.33366 15.5H2.66699V17.5H5.33366C5.88594 17.5 6.33366 17.0523 6.33366 16.5C6.33366 15.9477 5.88594 15.5 5.33366 15.5Z" fill="black"/>
<path d="M6.66699 11.5H2.66699V13.5H6.66699C7.21927 13.5 7.66699 13.0523 7.66699 12.5C7.66699 11.9477 7.21927 11.5 6.66699 11.5Z" fill="black"/>
<path d="M13 7.16699V3.16699H11V7.16699C11 7.71927 11.4477 8.16699 12 8.16699C12.5523 8.16699 13 7.71927 13 7.16699Z" fill="black"/>
<path d="M17 5.83366V3.16699H15V5.83366C15 6.38594 15.4477 6.83366 16 6.83366C16.5523 6.83366 17 6.38594 17 5.83366Z" fill="black"/>
<path d="M21 7.16699V3.16699H19V7.16699C19 7.71927 19.4477 8.16699 20 8.16699C20.5523 8.16699 21 7.71927 21 7.16699Z" fill="black"/>
<path d="M25 5.83366V3.1671L23 3.16699V5.83366C23 6.38594 23.4477 6.83366 24 6.83366C24.5523 6.83366 25 6.38594 25 5.83366Z" fill="black"/>
</svg>
