<svg width="32" height="32" viewBox="0 0 32 32" fill="none" xmlns="http://www.w3.org/2000/svg">
<path d="M7.46839 6.39941H24.5444C25.1324 6.39941 25.6004 6.86741 25.6004 7.45541V24.5434C25.6004 25.1194 25.1324 25.5994 24.5444 25.5994H19.6484V18.1594H22.1444L22.5164 15.2674H19.6484V13.4194C19.6484 12.5794 19.8884 12.0034 21.0884 12.0034H22.6244V9.41141C22.3604 9.37541 21.4484 9.30341 20.3924 9.30341C18.1724 9.30341 16.6604 10.6474 16.6604 13.1314V15.2674H14.1524V18.1594H16.6604V25.5994H7.46839C7.18721 25.5994 6.91736 25.4886 6.71741 25.2909C6.51746 25.0932 6.40355 24.8246 6.40039 24.5434V7.45541C6.40039 6.86741 6.88039 6.39941 7.46839 6.39941Z" fill="#3A4C52"/>
</svg>
