<svg width="32" height="32" viewBox="0 0 32 32" fill="none" xmlns="http://www.w3.org/2000/svg">
<path d="M15.998 12.7981C14.2352 12.7981 12.7966 14.2366 12.7966 15.9994C12.7966 17.7622 14.2352 19.2008 15.998 19.2008C17.7608 19.2008 19.1993 17.7622 19.1993 15.9994C19.1993 14.2366 17.7608 12.7981 15.998 12.7981ZM25.5997 15.9994C25.5997 14.6737 25.6117 13.36 25.5372 12.0367C25.4628 10.4997 25.1121 9.13558 23.9882 8.01162C22.8618 6.88526 21.5001 6.53702 19.9631 6.46257C18.6374 6.38812 17.3237 6.40013 16.0004 6.40013C14.6747 6.40013 13.361 6.38812 12.0377 6.46257C10.5007 6.53702 9.13655 6.88766 8.01259 8.01162C6.88623 9.13798 6.538 10.4997 6.46355 12.0367C6.3891 13.3624 6.4011 14.6761 6.4011 15.9994C6.4011 17.3227 6.3891 18.6388 6.46355 19.9621C6.538 21.4991 6.88863 22.8632 8.01259 23.9872C9.13895 25.1136 10.5007 25.4618 12.0377 25.5363C13.3634 25.6107 14.6771 25.5987 16.0004 25.5987C17.3261 25.5987 18.6398 25.6107 19.9631 25.5363C21.5001 25.4618 22.8642 25.1112 23.9882 23.9872C25.1145 22.8608 25.4628 21.4991 25.5372 19.9621C25.6141 18.6388 25.5997 17.3251 25.5997 15.9994ZM15.998 20.9251C13.2721 20.9251 11.0723 18.7253 11.0723 15.9994C11.0723 13.2736 13.2721 11.0737 15.998 11.0737C18.7238 11.0737 20.9237 13.2736 20.9237 15.9994C20.9237 18.7253 18.7238 20.9251 15.998 20.9251ZM21.1255 12.0223C20.489 12.0223 19.9751 11.5084 19.9751 10.8719C19.9751 10.2355 20.489 9.72157 21.1255 9.72157C21.7619 9.72157 22.2758 10.2355 22.2758 10.8719C22.276 11.0231 22.2464 11.1727 22.1886 11.3124C22.1309 11.4521 22.0462 11.579 21.9393 11.6858C21.8325 11.7927 21.7056 11.8774 21.5659 11.9351C21.4263 11.9929 21.2766 12.0225 21.1255 12.0223Z" fill="#3A4C52"/>
</svg>
