<svg width="32" height="32" viewBox="0 0 32 32" fill="none" xmlns="http://www.w3.org/2000/svg">
<path d="M6.40039 7.77461C6.40039 7.01501 7.03159 6.39941 7.81039 6.39941H24.1904C24.9692 6.39941 25.6004 7.01501 25.6004 7.77461V24.2242C25.6004 24.9838 24.9692 25.5994 24.1904 25.5994H7.81039C7.03159 25.5994 6.40039 24.9838 6.40039 24.2242V7.77461ZM12.332 22.4722V13.8022H9.45079V22.4722H12.332ZM10.892 12.6178C11.8964 12.6178 12.5216 11.953 12.5216 11.1202C12.5036 10.2694 11.8976 9.62261 10.9112 9.62261C9.92479 9.62261 9.28039 10.2706 9.28039 11.1202C9.28039 11.953 9.90559 12.6178 10.8728 12.6178H10.892ZM16.7816 22.4722V17.6302C16.7816 17.371 16.8008 17.1118 16.8776 16.927C17.0852 16.4098 17.5592 15.8734 18.356 15.8734C19.3988 15.8734 19.8152 16.6678 19.8152 17.8342V22.4722H22.6964V17.4994C22.6964 14.8354 21.2756 13.597 19.3796 13.597C17.8508 13.597 17.1656 14.437 16.7816 15.0286V15.0586H16.7624L16.7816 15.0286V13.8022H13.9016C13.9376 14.6158 13.9016 22.4722 13.9016 22.4722H16.7816Z" fill="#3A4C52"/>
</svg>
