<svg width="32" height="32" viewBox="0 0 32 32" fill="none" xmlns="http://www.w3.org/2000/svg">
<g clip-path="url(#clip0_1322_1721)">
<path fill-rule="evenodd" clip-rule="evenodd" d="M15.8613 6.66699C16.8873 6.66699 17.9397 6.69449 18.9597 6.73949L20.1645 6.79949L21.3177 6.87074L22.3977 6.94699L23.3841 7.02699C24.4546 7.11234 25.4619 7.58818 26.2288 8.37079C26.9957 9.15341 27.473 10.1927 27.5769 11.3057L27.6249 11.837L27.7149 12.9745C27.7989 14.1532 27.8613 15.4382 27.8613 16.667C27.8613 17.8957 27.7989 19.1807 27.7149 20.3595L27.6249 21.497C27.6093 21.6795 27.5937 21.8557 27.5769 22.0282C27.473 23.1415 26.9954 24.1809 26.2283 24.9636C25.4612 25.7462 24.4536 26.2219 23.3829 26.307L22.3989 26.3857L21.3189 26.4632L20.1645 26.5345L18.9597 26.5945C17.9275 26.6412 16.8945 26.6654 15.8613 26.667C14.8282 26.6654 13.7951 26.6412 12.7629 26.5945L11.5581 26.5345L10.4049 26.4632L9.32493 26.3857L8.33853 26.307C7.26807 26.2216 6.26079 25.7458 5.4939 24.9632C4.727 24.1806 4.24962 23.1413 4.14573 22.0282L4.09773 21.497L4.00773 20.3595C3.91597 19.1309 3.86714 17.8993 3.86133 16.667C3.86133 15.4382 3.92373 14.1532 4.00773 12.9745L4.09773 11.837C4.11333 11.6545 4.12893 11.4782 4.14573 11.3057C4.24958 10.1929 4.72679 9.15376 5.49344 8.37117C6.26009 7.58858 7.26708 7.11262 8.33733 7.02699L9.32253 6.94699L10.4025 6.87074L11.5569 6.79949L12.7617 6.73949C13.7943 6.69278 14.8278 6.66861 15.8613 6.66699ZM13.4613 13.6357V19.6982C13.4613 20.2757 14.0613 20.6357 14.5413 20.3482L19.5813 17.317C19.691 17.2512 19.7821 17.1565 19.8454 17.0424C19.9088 16.9283 19.9421 16.7988 19.9421 16.667C19.9421 16.5352 19.9088 16.4057 19.8454 16.2916C19.7821 16.1775 19.691 16.0828 19.5813 16.017L14.5413 12.987C14.4318 12.9211 14.3076 12.8865 14.1812 12.8865C14.0548 12.8865 13.9306 12.9212 13.8211 12.9871C13.7117 13.053 13.6208 13.1477 13.5576 13.2618C13.4945 13.3759 13.4612 13.504 13.4613 13.6357Z" fill="#3A4C52"/>
</g>
<defs>
<clipPath id="clip0_1322_1721">
<rect width="24" height="24" fill="white" transform="translate(4 4)"/>
</clipPath>
</defs>
</svg>
