<svg width="125" height="115" viewBox="0 0 125 115" fill="none" xmlns="http://www.w3.org/2000/svg">
<path d="M70.1555 55.5888V17.8346H69.5789L44.3027 55.0122V55.5888H70.1484H70.1555ZM31.2197 66.1377V55.9162L66.269 3.25684H82.2064V55.5888H97.9444V66.1377H82.2064V88.7305H69.9206V66.1377H31.2197Z" fill="#3A4C52"/>
<path d="M123.434 3.25684V91.4923H110.706V16.6245L93.5234 28.6185V14.482L109.219 3.25684H123.434Z" fill="#3A4C52"/>
<path d="M92.0578 114.249C90.2498 114.249 88.8049 113.829 87.7229 112.996C86.6481 112.156 86.0787 110.967 86.0146 109.437H88.7622C88.8262 110.256 89.1679 110.868 89.7872 111.273C90.4064 111.672 91.1538 111.871 92.0365 111.871C92.9191 111.871 93.7021 111.665 94.2858 111.252C94.8695 110.839 95.1613 110.298 95.1613 109.629C95.1613 109.024 94.9051 108.561 94.3854 108.255C93.8729 107.942 93.1896 107.686 92.3497 107.465L90.5844 107.003C89.2818 106.668 88.2639 106.163 87.5379 105.486C86.8047 104.81 86.4417 103.928 86.4417 102.824C86.4417 101.906 86.6908 101.102 87.182 100.418C87.6802 99.735 88.3564 99.2012 89.2106 98.8168C90.0648 98.4324 91.0399 98.2402 92.1219 98.2402C93.2038 98.2402 94.2004 98.4324 95.0332 98.8168C95.866 99.2012 96.5208 99.7279 96.9906 100.404C97.4675 101.08 97.7167 101.849 97.7309 102.71H95.0261C94.9549 102.048 94.6559 101.536 94.1292 101.166C93.6024 100.796 92.9191 100.611 92.0721 100.611C91.225 100.611 90.5061 100.803 90.0007 101.194C89.5024 101.579 89.2533 102.07 89.2533 102.661C89.2533 103.102 89.3885 103.458 89.6519 103.735C89.9224 104.013 90.257 104.234 90.6627 104.397C91.0755 104.568 91.4813 104.703 91.9012 104.803L93.3533 105.18C94.1221 105.373 94.8481 105.643 95.5528 105.992C96.2504 106.348 96.8198 106.817 97.2611 107.408C97.7024 108.006 97.9231 108.746 97.9231 109.658C97.9231 110.569 97.6882 111.373 97.2255 112.071C96.7557 112.761 96.0866 113.302 95.204 113.686C94.3285 114.071 93.2679 114.263 92.0294 114.263M76.0066 114.021V107.992L70.2623 98.4538H73.5224L76.2984 103.365C76.512 103.75 76.7113 104.12 76.8964 104.476C77.0814 104.832 77.2523 105.23 77.416 105.657C77.5939 105.209 77.7648 104.81 77.9427 104.454C78.1207 104.091 78.3129 103.728 78.5122 103.365L81.2384 98.4538H84.4771L78.7898 107.992V114.021H75.9995H76.0066ZM58.3538 114.021V98.4538H68.4615V100.803H61.1441V105.002H67.9205V107.323H61.1441V111.672H68.5042V114.021H58.3538ZM47.1856 105.999H49.805C50.8585 105.999 51.6273 105.778 52.1184 105.337C52.6024 104.896 52.8516 104.262 52.8516 103.444C52.8516 102.625 52.6024 101.963 52.1184 101.493C51.6273 101.031 50.8514 100.796 49.7837 100.796H47.1856V105.999ZM44.3953 114.021V98.4538H50.2108C51.9974 98.4538 53.3641 98.9164 54.2965 99.8276C55.229 100.746 55.6917 101.949 55.6917 103.429C55.6917 104.483 55.4568 105.387 54.9799 106.148C54.503 106.91 53.8125 107.465 52.8872 107.828L56.2611 114.014H53.1363L50.0755 108.298H47.1714V114.014H44.3811L44.3953 114.021ZM34.6151 111.729C35.8821 111.729 36.9214 111.259 37.7257 110.32C38.53 109.38 38.9358 108.02 38.9358 106.241C38.9358 104.461 38.53 103.095 37.7257 102.148C36.9142 101.208 35.8821 100.732 34.6151 100.732C33.3481 100.732 32.2946 101.208 31.4832 102.148C30.6646 103.095 30.2589 104.454 30.2589 106.241C30.2589 108.028 30.6646 109.366 31.4832 110.312C32.2946 111.259 33.341 111.729 34.6151 111.729ZM34.6151 114.227C33.2484 114.227 32.0313 113.907 30.9564 113.274C29.8816 112.64 29.0274 111.729 28.401 110.533C27.7747 109.344 27.4615 107.914 27.4615 106.241C27.4615 104.568 27.7747 103.13 28.401 101.935C29.0274 100.739 29.8816 99.8204 30.9564 99.1941C32.0313 98.5605 33.2556 98.2402 34.6151 98.2402C35.9747 98.2402 37.1918 98.5605 38.2667 99.1941C39.3415 99.8276 40.1957 100.739 40.8149 101.935C41.4413 103.13 41.7545 104.568 41.7545 106.241C41.7545 107.914 41.4413 109.352 40.8149 110.54C40.1957 111.729 39.3415 112.64 38.2667 113.274C37.1918 113.907 35.9675 114.227 34.6151 114.227ZM13.7948 100.803V98.4538H26.1873V100.803H21.3898V114.021H18.5995V100.803H13.7948ZM6.04323 114.256C4.23524 114.256 2.79028 113.836 1.70833 113.003C0.633508 112.163 0.0640625 110.974 0 109.444H2.74757C2.81163 110.263 3.1533 110.875 3.77257 111.281C4.39184 111.679 5.13924 111.878 6.02187 111.878C6.90451 111.878 7.6875 111.672 8.27118 111.259C8.85486 110.846 9.1467 110.305 9.1467 109.636C9.1467 109.031 8.89045 108.569 8.37083 108.262C7.85833 107.949 7.175 107.693 6.33507 107.472L4.56979 107.01C3.26719 106.675 2.24931 106.17 1.52326 105.494C0.790104 104.817 0.427082 103.935 0.427082 102.831C0.427082 101.913 0.676215 101.109 1.16736 100.425C1.66562 99.7421 2.34184 99.2083 3.19601 98.8239C4.05018 98.4395 5.02535 98.2473 6.10729 98.2473C7.18924 98.2473 8.18576 98.4395 9.01858 98.8239C9.85139 99.2083 10.5063 99.735 10.976 100.411C11.453 101.087 11.7021 101.856 11.7163 102.717H9.01146C8.94028 102.056 8.64132 101.543 8.11459 101.173C7.58785 100.803 6.90451 100.618 6.05746 100.618C5.21042 100.618 4.49149 100.81 3.98611 101.201C3.48785 101.586 3.23872 102.077 3.23872 102.668C3.23872 103.109 3.37396 103.465 3.63733 103.742C3.90781 104.02 4.24236 104.241 4.64809 104.404C5.06094 104.575 5.46667 104.711 5.88663 104.81L7.33872 105.187C8.10747 105.38 8.83351 105.65 9.5382 105.999C10.2358 106.355 10.8052 106.825 11.2465 107.415C11.6878 108.013 11.9085 108.754 11.9085 109.665C11.9085 110.576 11.6736 111.38 11.2109 112.078C10.7411 112.768 10.0721 113.309 9.18941 113.694C8.31389 114.078 7.2533 114.27 6.01476 114.27L6.04323 114.256Z" fill="#3A4C52"/>
<path d="M117.07 98.7959C121.185 98.7959 124.516 102.134 124.516 106.241C124.516 110.349 121.185 113.687 117.07 113.687C112.956 113.687 109.625 110.356 109.625 106.241C109.625 102.127 112.963 98.7959 117.07 98.7959Z" fill="#B72419"/>
<path d="M54.4956 4.65904L55.2146 3.58422C55.5064 3.15002 55.6274 2.77276 55.5776 2.45245C55.5278 2.13214 55.3356 1.85453 55.001 1.63387C54.6593 1.40609 54.3248 1.32779 54.0045 1.39897C53.6771 1.47015 53.371 1.72641 53.0791 2.16061L52.3602 3.22832L54.4956 4.65904ZM57.0154 8.01165L50.6305 3.72658L52.2321 1.34203C52.7232 0.608872 53.2856 0.17467 53.9191 0.0465454C54.5526 -0.0815796 55.1719 0.0536636 55.784 0.466511C56.2182 0.758351 56.5243 1.10002 56.7022 1.50575C56.8802 1.91148 56.9229 2.34568 56.8161 2.8297L60.2826 3.1429L59.4213 4.42415L56.2324 4.10384L55.4352 5.29255L57.7771 6.86564L57.0083 8.01165H57.0154ZM47.0715 11.1222L46.1106 10.4745L49.5201 5.3922L50.4811 6.03995L49.1642 8.00453L54.5882 11.6419L53.8194 12.7879L48.4026 9.15054L47.0786 11.1222H47.0715ZM46.8081 23.23L40.4232 18.945L41.5764 17.2224L45.6835 18.2189C45.8401 18.2617 46.0323 18.3186 46.2743 18.3969C46.5163 18.4752 46.7654 18.5606 47.0359 18.6603C47.3064 18.7599 47.5627 18.8524 47.8047 18.945C47.6267 18.7599 47.4488 18.5606 47.2495 18.3471C47.0573 18.1335 46.8793 17.9342 46.7156 17.742C46.5519 17.5498 46.4166 17.3932 46.317 17.2651L43.8257 13.8556L44.9859 12.1259L51.3708 16.411L50.6021 17.5498L47.3776 15.386C47.2139 15.2792 47.0217 15.1439 46.7868 14.9802C46.5519 14.8165 46.3099 14.6457 46.0465 14.4606C45.7831 14.2755 45.5269 14.0976 45.2778 13.9196C45.5055 14.1759 45.7262 14.4321 45.9397 14.6955C46.1604 14.9589 46.3597 15.2009 46.5376 15.4287C46.7156 15.6564 46.8651 15.8415 46.9718 15.9839L49.4062 19.3222L48.7514 20.2974L44.7297 19.3294C44.5588 19.2866 44.3382 19.2297 44.0677 19.1514C43.7972 19.0731 43.4982 18.9806 43.1779 18.8809C42.8576 18.7813 42.5302 18.6745 42.2028 18.5677C42.4448 18.7243 42.701 18.888 42.9644 19.0518C43.2278 19.2226 43.484 19.3792 43.7189 19.5358C43.9538 19.6853 44.1531 19.8205 44.3168 19.9273L47.5413 22.0912L46.7868 23.2158L46.8081 23.23ZM42.2597 30.1986C41.9821 30.6186 41.6547 30.9318 41.2774 31.1524C40.9001 31.3731 40.5158 31.487 40.11 31.4941C39.7043 31.5012 39.3271 31.3945 38.9712 31.1667L39.7186 30.0563C39.9962 30.2129 40.2809 30.2485 40.587 30.1488C40.893 30.0491 41.1422 29.857 41.3344 29.5722C41.5621 29.2306 41.6404 28.8747 41.555 28.4974C41.4767 28.1202 41.2561 27.8141 40.893 27.5721C40.53 27.3301 40.1528 27.2446 39.7684 27.3087C39.384 27.3799 39.0708 27.5863 38.8359 27.9351C38.7078 28.1273 38.6153 28.3408 38.5654 28.5757C38.5156 28.8106 38.5085 29.017 38.5583 29.2092L37.697 30.1346L34.6291 27.5934L37.1133 23.8991L38.0743 24.5398L36.2307 27.2873L37.8038 28.6113L37.8251 28.5757C37.7682 28.3622 37.7611 28.1202 37.8251 27.8426C37.8821 27.5649 37.996 27.2945 38.1668 27.0382C38.4231 26.6538 38.7505 26.3691 39.1349 26.1912C39.5192 26.0132 39.9321 25.942 40.3663 25.9776C40.8005 26.0132 41.2276 26.1698 41.6333 26.4474C42.0533 26.7321 42.3665 27.0809 42.5658 27.4938C42.7651 27.9066 42.8434 28.3479 42.8007 28.8177C42.758 29.2875 42.5871 29.7431 42.2811 30.1986H42.2597ZM33.0418 29.9495L39.4267 34.2346L38.6651 35.3735L33.2981 31.7717L33.2696 31.8144L33.3408 34.021L32.2517 33.2879L32.1877 31.2165L33.0418 29.9495ZM36.5724 38.6406C36.4442 38.8328 36.2663 38.9538 36.0456 38.9965C35.825 39.0392 35.6186 38.9965 35.4192 38.8684C35.2271 38.7403 35.1132 38.5623 35.0705 38.3417C35.0278 38.121 35.0705 37.9146 35.1986 37.7224C35.3267 37.5302 35.5047 37.4092 35.7253 37.3665C35.946 37.3238 36.1524 37.3665 36.3446 37.4946C36.5368 37.6228 36.6578 37.8007 36.7005 38.0214C36.7432 38.242 36.7005 38.4485 36.5653 38.6478L36.5724 38.6406ZM28.3083 37.0035L34.6932 41.2886L33.9316 42.4274L28.5646 38.8257L28.5361 38.8684L28.6073 41.0821L27.5182 40.349L27.4541 38.2776L28.3083 37.0106V37.0035ZM29.5041 47.1965C29.6536 46.9688 29.739 46.7339 29.7462 46.4776C29.7604 46.2214 29.7034 45.9794 29.5824 45.7516C29.4686 45.5238 29.2906 45.3316 29.0557 45.1679C28.8279 45.0184 28.5859 44.9259 28.3297 44.9045C28.0734 44.8832 27.8385 44.9259 27.6107 45.0255C27.383 45.1323 27.1908 45.296 27.0413 45.5238C26.8918 45.7516 26.8064 45.9936 26.7993 46.2498C26.7922 46.5061 26.842 46.7481 26.963 46.983C27.0769 47.2179 27.2477 47.403 27.4684 47.5524C27.6962 47.7019 27.9382 47.7873 28.1944 47.8158C28.4507 47.8372 28.6927 47.8016 28.9276 47.6948C29.1625 47.588 29.3547 47.4243 29.5041 47.1965ZM30.4366 47.8158C30.2302 48.1219 29.9811 48.3853 29.6821 48.6059C29.3831 48.8266 29.0415 48.9689 28.6429 49.0401C28.2514 49.1113 27.81 49.0828 27.3189 48.9547C26.8349 48.8266 26.2939 48.5632 25.7102 48.1717C24.9842 47.6806 24.429 47.161 24.0517 46.6129C23.6745 46.0648 23.4752 45.5096 23.4467 44.9472C23.4253 44.392 23.5819 43.8582 23.9236 43.3457C24.187 42.9471 24.5073 42.6481 24.8703 42.4488C25.2333 42.2495 25.6177 42.1356 26.0163 42.1285C26.4149 42.1214 26.8064 42.2068 27.1837 42.3919L26.4291 43.5165C26.1444 43.4169 25.8668 43.4026 25.5963 43.4809C25.3258 43.5592 25.0981 43.7372 24.913 44.0148C24.614 44.4632 24.5784 44.933 24.7991 45.4313C25.0269 45.9295 25.4753 46.4064 26.1515 46.862L26.18 46.8122C26.0092 46.4705 25.938 46.1075 25.9665 45.7231C26.0021 45.3387 26.1302 44.9757 26.3651 44.6269C26.6142 44.2568 26.9274 43.9792 27.3118 43.7941C27.689 43.6162 28.0948 43.545 28.529 43.5806C28.9632 43.6162 29.376 43.7728 29.7817 44.0432C30.2017 44.328 30.5149 44.6696 30.7142 45.0825C30.9135 45.4953 30.9989 45.9366 30.9562 46.4064C30.9135 46.8833 30.7427 47.346 30.4366 47.8087V47.8158ZM21.1618 47.6521L27.5467 51.9372L26.785 53.0761L21.418 49.4743L21.3896 49.517L21.4607 51.7236L20.3717 50.9905L20.3076 48.9191L21.1618 47.6521Z" fill="#3A4C52"/>
</svg>
